<?xml version="1.0" standalone="no"?>
<!DOCTYPE svg PUBLIC "-//W3C//DTD SVG 20010904//EN"
 "http://www.w3.org/TR/2001/REC-SVG-20010904/DTD/svg10.dtd">
<svg version="1.0" xmlns="http://www.w3.org/2000/svg"
 width="2560.000000pt" height="1823.000000pt" viewBox="0 0 2560.000000 1823.000000"
 preserveAspectRatio="xMidYMid meet">

<g transform="translate(0.000000,1823.000000) scale(0.100000,-0.100000)"
fill="#000000" stroke="none">
<path d="M7890 17503 c-330 -9 -652 -71 -970 -188 l-145 -53 -227 5 -227 6
-78 -49 c-444 -276 -852 -730 -1096 -1219 -44 -89 -698 -1654 -1015 -2431
l-70 -172 37 -6 c20 -3 75 -6 123 -6 l87 0 -71 -172 c-229 -562 -935 -2266
-942 -2275 -1 -1 -51 16 -113 37 l-111 38 -20 -46 c-11 -26 -184 -441 -385
-922 -671 -1607 -949 -2285 -954 -2321 -8 -54 26 -121 78 -156 l43 -28 3915 0
c3727 0 3919 1 3981 18 139 38 243 102 310 191 146 193 111 473 -84 686 -55
60 -910 861 -1819 1705 l-248 230 -167 5 c-126 4 -172 9 -188 20 -47 33 -663
613 -719 677 -376 424 -603 922 -697 1528 -21 138 -37 608 -24 699 l7 46 119
0 c138 0 121 -16 141 135 64 500 284 1026 589 1410 93 116 290 315 405 408
433 349 965 558 1587 622 131 13 1022 15 7775 15 4545 0 7644 4 7667 10 44 10
81 34 108 71 14 18 358 841 358 856 0 2 -58 3 -130 3 -71 0 -130 4 -130 8 0
11 75 201 169 430 39 95 71 175 71 177 0 3 -419 5 -931 5 l-931 0 6 -72 c14
-166 18 -819 7 -999 -7 -101 -14 -192 -17 -201 -5 -17 -335 -18 -6753 -18
l-6748 0 -6 58 c-29 277 -32 805 -7 1106 6 66 9 121 7 122 -4 4 -1443 10
-1567 7z"/>
<path d="M20286 13609 c-113 -18 -254 -116 -312 -214 -25 -44 -151 -343 -585
-1397 -343 -832 -361 -877 -354 -888 8 -13 196 -112 202 -107 10 11 294 691
792 1901 168 408 181 432 256 467 36 17 70 19 325 20 157 0 296 4 310 8 21 6
-4 22 -171 114 l-196 107 -109 -1 c-60 -1 -131 -5 -158 -10z"/>
<path d="M9100 13364 c-30 -14 -69 -36 -87 -50 -31 -23 -34 -24 -165 -18
l-134 7 -16 -39 c-70 -163 -43 -350 76 -512 24 -33 1288 -1216 2036 -1905
l105 -97 110 -1 c61 -1 147 -4 193 -7 l82 -7 236 -215 c262 -239 379 -362 524
-555 117 -155 197 -282 278 -436 50 -95 152 -317 152 -331 0 -2 -61 -2 -136 0
l-135 4 16 -38 c114 -268 188 -553 216 -828 17 -169 7 -496 -20 -655 -118
-690 -420 -1282 -901 -1761 -220 -219 -457 -396 -698 -519 -101 -51 -132 -74
-132 -96 0 -2 7 -11 16 -19 14 -14 174 -16 1613 -16 1101 0 1616 3 1657 11
121 22 248 109 308 212 14 23 228 533 476 1132 874 2107 1004 2425 997 2432
-3 3 -62 7 -130 10 l-124 6 167 416 c93 229 223 547 290 706 67 160 126 304
132 321 l10 30 137 -4 137 -4 13 28 c42 91 904 2171 970 2342 l21 52 -119 0
c-66 0 -125 2 -133 5 -16 6 -64 -104 -463 -1065 -161 -388 -332 -799 -380
-915 -48 -115 -99 -238 -112 -271 l-25 -61 -112 23 c-888 189 -1721 568 -2441
1111 -536 404 -1022 918 -1392 1474 l-86 129 -1486 0 -1486 0 -55 -26z"/>
<path d="M22677 13283 c-539 -758 -1249 -1406 -2062 -1883 -358 -210 -889
-447 -1288 -576 -168 -54 -179 -59 -191 -88 -8 -17 -61 -146 -120 -286 -58
-140 -115 -273 -125 -295 -11 -22 -36 -80 -56 -130 -99 -241 -328 -781 -334
-787 -3 -4 -51 17 -105 47 -55 30 -101 53 -103 51 -8 -7 -452 -1076 -1167
-2805 -271 -654 -436 -1067 -436 -1087 0 -69 37 -124 105 -155 37 -17 78 -19
625 -19 761 0 950 14 1277 95 919 226 1700 858 2087 1687 34 73 266 622 306
724 7 18 -3 27 -100 80 l-107 59 22 60 c79 209 520 1264 534 1278 6 6 51 -14
112 -47 56 -31 106 -53 110 -49 13 14 1271 3049 1292 3118 6 17 -9 29 -102 80
l-109 60 23 60 c23 63 223 553 319 783 l55 132 -193 0 -192 0 -77 -107z"/>
<path d="M20590 3040 l0 -310 -185 0 -185 0 0 -110 0 -110 185 0 185 0 0 -770
0 -770 125 0 125 0 0 770 0 770 205 0 205 0 0 110 0 110 -205 0 -205 0 0 310
0 310 -125 0 -125 0 0 -310z"/>
<path d="M25100 2903 l0 -447 -51 57 c-95 107 -246 196 -404 238 -104 28 -322
31 -432 6 -322 -74 -575 -298 -679 -604 -212 -624 268 -1253 931 -1220 230 12
446 109 584 264 l51 57 0 -142 0 -142 125 0 125 0 0 1190 0 1190 -125 0 -125
0 0 -447z m-515 -368 c33 -8 98 -34 145 -57 68 -33 102 -58 171 -127 71 -71
94 -102 133 -181 61 -125 79 -213 73 -355 -8 -191 -79 -349 -216 -478 -127
-120 -288 -181 -471 -180 -201 2 -349 62 -486 198 -90 89 -129 151 -170 270
-26 72 -28 93 -29 220 0 160 14 225 72 343 61 124 197 251 329 307 126 54 325
71 449 40z"/>
<path d="M7775 2774 c-397 -63 -685 -317 -787 -695 -32 -118 -32 -315 0 -444
99 -398 442 -675 867 -701 250 -15 483 70 648 238 l77 79 0 -141 0 -140 125 0
125 0 0 880 0 880 -125 0 -125 0 0 -137 0 -138 -56 63 c-148 165 -344 250
-594 257 -69 2 -138 1 -155 -1z m293 -240 c116 -26 207 -79 308 -179 78 -76
98 -104 138 -185 103 -210 103 -423 -1 -639 -84 -175 -254 -311 -443 -356
-155 -36 -348 -12 -499 62 -105 51 -231 178 -284 283 -60 121 -81 221 -74 365
8 200 64 335 193 466 79 80 147 122 261 162 131 45 263 52 401 21z"/>
<path d="M11880 2761 c-171 -37 -328 -120 -453 -240 -189 -180 -273 -368 -284
-631 -6 -156 8 -252 58 -382 144 -371 567 -621 964 -569 221 30 409 128 515
270 l40 53 0 -108 c-1 -206 -52 -347 -169 -465 -115 -115 -264 -172 -451 -172
-225 0 -411 90 -539 260 -28 38 -61 92 -73 120 l-23 53 -132 0 -132 0 20 -57
c54 -158 154 -303 273 -399 88 -70 227 -138 351 -171 138 -36 355 -39 488 -5
285 72 481 235 572 477 60 158 58 125 62 1068 l4 867 -125 0 -126 0 0 -141 0
-140 -49 59 c-56 67 -150 141 -233 183 -158 80 -385 108 -558 70z m345 -227
c89 -23 205 -88 279 -155 123 -113 204 -271 225 -438 35 -280 -128 -594 -372
-715 -95 -46 -181 -66 -297 -66 -116 0 -188 17 -300 72 -150 73 -284 228 -338
393 -33 97 -44 211 -32 309 20 166 77 288 188 407 172 184 406 254 647 193z"/>
<path d="M13958 2770 c-130 -23 -236 -76 -320 -158 l-48 -46 0 82 0 82 -120 0
-120 0 0 -880 0 -880 120 0 120 0 0 528 c0 310 4 562 11 612 34 277 179 425
427 438 241 12 406 -111 469 -350 14 -54 17 -144 20 -645 l4 -583 120 0 119 0
0 533 c0 310 4 567 10 616 34 267 183 416 428 429 241 12 406 -111 469 -350
14 -54 17 -144 20 -645 l4 -583 120 0 119 0 0 578 c-1 623 -3 663 -54 797
-100 261 -351 428 -646 428 -127 1 -215 -19 -325 -73 -111 -54 -159 -95 -250
-215 -15 -20 -16 -20 -32 5 -9 14 -49 57 -88 96 -114 114 -266 178 -450 188
-44 3 -101 1 -127 -4z"/>
<path d="M17045 2774 c-213 -32 -396 -123 -545 -273 -183 -184 -270 -394 -270
-651 0 -180 40 -327 131 -479 187 -312 571 -489 926 -427 113 20 165 36 268
87 107 52 226 149 303 246 61 77 152 241 152 276 0 15 -13 17 -124 17 l-125 0
-38 -72 c-50 -98 -163 -211 -260 -261 -99 -52 -205 -77 -320 -77 -118 0 -165
11 -283 67 -81 39 -108 59 -181 132 -114 115 -175 226 -194 356 l-7 45 792 0
793 0 -6 128 c-6 138 -34 256 -83 355 -74 147 -197 293 -318 376 -70 49 -202
108 -291 131 -78 20 -256 33 -320 24z m313 -257 c139 -49 250 -132 332 -250
50 -69 105 -196 112 -252 l3 -30 -654 -3 c-360 -1 -658 1 -662 5 -11 13 18
112 56 188 87 178 252 312 441 360 95 24 280 15 372 -18z"/>
<path d="M19059 2770 c-134 -21 -264 -85 -358 -177 -30 -29 -56 -53 -58 -53
-2 0 -3 43 -3 95 l0 95 -120 0 -120 0 0 -880 0 -880 119 0 119 0 5 558 c4 613
5 616 69 751 116 243 442 342 708 214 73 -35 179 -142 213 -215 62 -131 61
-121 65 -740 l3 -568 125 0 125 0 -4 578 c-3 553 -4 580 -25 659 -74 280 -262
478 -518 543 -88 23 -264 33 -345 20z"/>
<path d="M22215 2773 c-363 -45 -672 -310 -781 -668 -25 -82 -27 -105 -28
-250 0 -188 17 -264 89 -410 106 -214 295 -384 513 -460 449 -157 939 50 1138
481 51 109 55 104 -90 104 l-125 0 -32 -67 c-45 -93 -168 -215 -266 -266 -151
-79 -335 -99 -489 -54 -249 72 -447 290 -489 540 l-6 37 791 0 790 0 1 38 c11
265 -79 505 -259 694 -198 207 -488 315 -757 281z m260 -239 c33 -8 98 -33
144 -55 154 -76 300 -251 341 -409 6 -25 13 -53 16 -62 5 -17 -31 -18 -659
-18 l-665 0 15 56 c93 358 449 573 808 488z"/>
<path d="M9310 2202 c0 -541 5 -640 40 -770 63 -232 235 -402 480 -472 103
-30 297 -38 400 -16 142 30 291 123 368 231 l21 30 1 -117 0 -118 120 0 120 0
0 880 0 880 -124 0 -125 0 -3 -557 c-4 -603 -4 -602 -62 -728 -31 -69 -113
-165 -178 -208 -90 -59 -166 -80 -293 -81 -276 -1 -446 134 -499 396 -13 64
-16 168 -16 628 l0 550 -125 0 -125 0 0 -528z"/>
</g>
</svg>
