<?xml version="1.0" standalone="no"?>
<!DOCTYPE svg PUBLIC "-//W3C//DTD SVG 20010904//EN"
 "http://www.w3.org/TR/2001/REC-SVG-20010904/DTD/svg10.dtd">
<svg version="1.0" xmlns="http://www.w3.org/2000/svg"
 width="1200.000000pt" height="444.000000pt" viewBox="0 0 1200.000000 444.000000"
 preserveAspectRatio="xMidYMid meet">

<g transform="translate(0.000000,444.000000) scale(0.100000,-0.100000)"
fill="#000000" stroke="none">
<path d="M970 3675 l0 -475 -331 0 -332 0 6 -41 c11 -79 52 -142 181 -271 116
-116 124 -127 150 -200 30 -84 83 -177 123 -220 15 -15 46 -35 69 -44 58 -22
102 -7 162 58 55 58 108 88 156 88 96 0 134 -45 263 -310 58 -118 125 -246
149 -283 117 -180 313 -300 462 -282 47 5 132 24 132 29 0 1 -10 29 -22 61
-17 47 -22 83 -22 165 -1 94 2 111 26 162 38 81 76 134 151 207 111 109 275
206 442 262 l80 27 14 48 c17 63 28 444 13 444 -24 0 -81 62 -103 112 -21 48
-24 70 -27 235 l-4 181 -41 11 c-90 22 -447 50 -447 34 0 -4 -11 -71 -25 -147
-14 -77 -25 -141 -25 -143 0 -2 43 -3 95 -3 52 0 95 -2 95 -5 0 -19 -65 -262
-72 -272 -6 -8 -45 -13 -101 -15 l-92 -3 -42 -175 c-46 -193 -52 -254 -27
-264 9 -3 48 -6 89 -6 l73 0 -37 -117 -37 -118 -85 -32 c-46 -17 -119 -37
-161 -43 -145 -23 -237 6 -295 93 -62 92 -65 198 -11 477 16 85 31 163 34 173
5 15 -4 17 -90 17 -70 0 -96 3 -96 13 0 6 11 55 25 107 14 52 30 112 36 132
l10 37 96 3 97 3 33 150 c18 83 32 153 33 156 0 4 -21 12 -47 18 -97 25 -93
14 -93 241 l0 200 -315 0 -315 0 0 -475z"/>
<path d="M1941 3887 c-42 -21 -66 -64 -66 -118 0 -41 5 -53 32 -81 27 -27 41
-32 90 -35 46 -3 65 0 91 17 80 50 75 172 -9 216 -34 17 -105 18 -138 1z"/>
<path d="M1767 3248 c-37 -178 -81 -383 -96 -456 l-28 -133 121 3 121 3 92
435 c51 239 92 443 93 453 0 15 -12 17 -118 17 l-118 0 -67 -322z"/>
<path d="M3461 2994 c-24 -64 -40 -118 -38 -121 3 -2 24 9 46 25 58 42 114 53
287 55 115 2 155 -1 167 -12 16 -12 17 -62 17 -563 0 -611 2 -589 -66 -622
-19 -8 -34 -22 -34 -31 0 -13 31 -15 225 -15 189 0 225 2 225 14 0 8 -13 23
-29 32 -16 10 -34 28 -40 41 -8 16 -11 203 -11 584 l0 559 28 11 c36 14 298 2
361 -17 25 -7 58 -25 73 -39 28 -26 63 -34 56 -12 -3 6 -22 60 -43 120 l-38
107 -572 0 -572 0 -42 -116z"/>
<path d="M4470 2762 c0 -11 11 -21 32 -27 17 -6 41 -23 52 -38 20 -28 21 -39
21 -445 0 -469 0 -470 -66 -496 -21 -9 -39 -23 -39 -31 0 -13 56 -15 449 -15
l450 0 27 88 c43 141 43 141 32 148 -5 3 -24 -7 -41 -24 -68 -64 -80 -67 -327
-70 -136 -1 -231 1 -240 7 -12 8 -16 42 -18 176 l-3 166 191 -3 192 -3 27 -32
c47 -56 51 -47 51 107 0 154 -4 163 -51 108 l-27 -33 -192 -3 -192 -4 4 136
c2 94 7 139 16 148 10 10 59 13 195 13 203 0 249 -10 302 -65 30 -31 49 -37
60 -20 4 6 -12 60 -36 120 l-42 110 -413 0 c-391 0 -414 -1 -414 -18z"/>
<path d="M5440 2762 c0 -13 12 -22 40 -31 45 -13 39 -7 257 -290 144 -187 155
-205 143 -224 -7 -12 -80 -110 -161 -218 -144 -191 -150 -198 -214 -230 -108
-53 -94 -59 135 -59 167 0 200 2 200 14 0 8 -9 18 -21 21 -25 8 -39 43 -29 71
9 22 177 261 189 268 9 6 188 -225 200 -256 12 -33 -3 -63 -38 -78 -17 -7 -31
-19 -31 -26 0 -12 58 -14 340 -14 277 0 340 2 340 13 0 8 -11 19 -25 25 -50
23 -52 51 -10 162 l38 100 220 -2 220 -3 34 -90 c41 -111 40 -144 -4 -165 -18
-8 -33 -21 -33 -27 0 -10 53 -13 230 -13 196 0 230 2 230 15 0 8 -13 21 -30
30 -50 26 -78 73 -164 275 -45 107 -136 320 -201 473 l-118 278 -105 -3 -106
-3 -177 -430 c-98 -236 -186 -446 -196 -465 -21 -40 -71 -100 -84 -100 -4 0
-85 109 -180 243 -95 133 -176 247 -180 253 -10 12 225 354 269 392 33 28 120
72 145 72 10 0 17 8 17 20 0 19 -7 20 -200 20 -191 0 -200 -1 -200 -19 0 -13
8 -21 23 -23 17 -2 23 -10 25 -39 3 -31 -7 -49 -90 -155 -51 -66 -96 -122
-100 -124 -11 -7 -168 239 -168 262 0 31 19 58 40 58 13 0 20 7 20 20 0 19 -7
20 -245 20 -231 0 -245 -1 -245 -18z m1658 -400 c40 -108 72 -200 72 -204 0
-5 -72 -8 -161 -8 -149 0 -161 1 -155 18 23 64 162 392 166 392 3 0 38 -89 78
-198z"/>
<path d="M7980 2759 c-184 -47 -283 -183 -250 -342 15 -73 55 -132 123 -177
51 -35 92 -50 316 -116 114 -34 166 -69 182 -123 10 -34 9 -44 -7 -78 -27 -53
-84 -83 -177 -90 -152 -12 -302 38 -408 136 -39 35 -62 49 -74 45 -9 -4 -14
-12 -12 -18 3 -6 26 -74 52 -151 27 -77 51 -144 55 -148 4 -5 19 4 33 19 l26
27 52 -16 c182 -59 423 -42 547 37 96 62 145 150 145 261 0 89 -29 160 -88
214 -57 52 -118 82 -245 121 -213 64 -241 74 -275 103 -30 24 -35 35 -35 71 0
33 6 48 28 68 96 90 361 62 481 -50 67 -64 72 -37 21 109 -26 74 -48 119 -56
119 -8 0 -14 -7 -14 -16 0 -13 -6 -15 -32 -10 -151 32 -279 34 -388 5z"/>
<path d="M292 1701 c2 -6 19 -20 38 -33 19 -13 40 -35 47 -48 10 -19 13 -161
13 -605 0 -646 1 -633 -67 -665 -18 -8 -33 -23 -33 -32 0 -17 17 -18 225 -18
212 0 225 1 225 18 0 11 -11 24 -25 30 -13 6 -32 26 -42 44 -17 30 -18 76 -21
568 -2 294 0 564 3 600 6 59 11 69 46 102 21 21 39 40 39 43 0 3 -102 5 -226
5 -136 0 -224 -4 -222 -9z"/>
<path d="M2344 1376 c-124 -28 -225 -100 -271 -190 -21 -41 -26 -65 -26 -122
1 -86 24 -143 79 -196 55 -52 120 -81 284 -128 216 -62 265 -94 265 -174 0
-84 -65 -132 -193 -143 -147 -12 -299 40 -403 137 -36 34 -59 48 -71 44 -15
-4 -12 -20 34 -152 28 -81 53 -149 55 -151 1 -2 18 4 37 14 31 17 41 18 103 6
122 -23 289 -26 383 -7 194 40 288 128 298 282 13 195 -94 293 -418 385 -220
62 -270 101 -236 183 25 59 84 80 221 80 124 0 189 -19 265 -77 24 -18 49 -36
56 -42 7 -5 16 -6 20 -2 6 6 -36 185 -58 246 l-9 24 -23 -22 c-23 -22 -25 -22
-82 -6 -85 22 -236 28 -310 11z"/>
<path d="M11155 1380 c-124 -27 -229 -92 -280 -174 -28 -46 -30 -57 -30 -140
0 -74 4 -99 22 -132 47 -88 137 -140 338 -194 217 -59 271 -98 262 -190 -12
-108 -157 -156 -348 -116 -88 19 -174 63 -241 125 -99 91 -106 68 -32 -112 32
-78 59 -144 60 -146 2 -2 15 4 30 13 24 17 33 17 134 2 196 -29 366 -15 477
39 64 32 135 109 152 166 17 55 17 147 0 196 -41 126 -122 181 -381 259 -84
25 -171 56 -192 67 -50 28 -68 68 -52 116 15 47 51 70 129 84 125 21 285 -18
380 -94 30 -24 37 -27 37 -13 0 17 -59 246 -65 252 -2 2 -12 -5 -23 -16 -19
-19 -23 -19 -83 -6 -82 18 -242 26 -294 14z"/>
<path d="M870 1350 c0 -11 6 -20 13 -20 8 0 24 -12 38 -26 l24 -26 3 -427 c2
-274 -1 -438 -8 -455 -5 -15 -23 -35 -40 -44 -16 -9 -30 -25 -30 -34 0 -16 14
-18 155 -18 141 0 155 2 155 18 -1 9 -15 26 -33 37 -54 34 -58 62 -55 398 l3
301 360 -377 c207 -217 367 -377 377 -377 17 0 18 28 18 468 0 520 0 521 67
552 18 8 33 23 33 33 0 15 -14 17 -165 17 -135 0 -165 -3 -165 -14 0 -8 15
-23 34 -34 52 -31 57 -63 54 -321 l-3 -224 -269 297 -269 296 -149 0 c-141 0
-148 -1 -148 -20z"/>
<path d="M2957 1363 c-14 -23 -67 -235 -62 -243 4 -6 30 11 61 39 66 61 105
73 222 69 l87 -3 3 -414 c2 -451 2 -453 -53 -467 -16 -4 -25 -13 -25 -25 0
-18 11 -19 220 -19 186 0 220 2 220 15 0 8 -20 23 -44 34 -37 16 -46 26 -55
58 -15 51 -15 777 -1 804 9 17 22 19 103 19 125 0 155 -10 212 -71 28 -30 53
-48 61 -45 8 3 14 9 14 14 0 7 -41 129 -70 210 l-12 32 -438 0 c-242 0 -441
-3 -443 -7z"/>
<path d="M3930 1350 c0 -11 6 -20 14 -20 8 0 26 -14 40 -31 l26 -31 0 -432 c0
-420 -1 -434 -20 -459 -11 -14 -29 -29 -40 -32 -11 -4 -20 -15 -20 -26 0 -18
9 -19 210 -19 173 0 210 2 210 14 0 8 -16 23 -35 35 -19 11 -40 32 -45 46 -6
15 -10 105 -10 201 l0 174 81 0 c53 0 92 -5 115 -16 38 -18 81 -79 142 -206
84 -172 162 -236 301 -246 73 -5 163 11 180 32 8 10 1 16 -29 25 -47 14 -83
56 -166 195 -70 117 -149 207 -216 245 l-49 28 68 17 c157 38 234 134 220 272
-10 97 -61 164 -158 208 -89 41 -142 46 -490 46 -322 0 -329 0 -329 -20z m633
-124 c59 -29 90 -77 95 -147 4 -59 4 -60 -39 -103 -58 -58 -119 -76 -256 -76
l-103 0 0 155 c0 203 -3 199 154 193 81 -3 121 -9 149 -22z"/>
<path d="M4980 1357 c0 -7 14 -20 32 -28 17 -8 41 -27 52 -42 20 -27 21 -44
26 -385 5 -339 6 -359 27 -404 41 -89 138 -160 263 -194 81 -21 254 -24 330
-5 124 31 226 105 270 195 34 70 40 144 40 467 0 297 1 307 21 333 12 15 32
32 45 36 13 5 24 16 24 25 0 13 -24 15 -170 15 -140 0 -170 -2 -170 -14 0 -8
17 -23 38 -33 69 -34 72 -48 72 -389 0 -352 -4 -378 -73 -441 -59 -54 -103
-68 -217 -68 -81 0 -103 4 -152 27 -69 32 -103 79 -119 162 -6 35 -9 171 -7
351 3 279 4 295 24 322 11 15 35 34 52 42 18 8 32 21 32 28 0 10 -44 13 -220
13 -176 0 -220 -3 -220 -13z"/>
<path d="M6180 1351 c0 -11 9 -23 21 -26 11 -4 29 -21 40 -38 18 -30 19 -55
19 -452 0 -397 -1 -422 -19 -452 -11 -17 -29 -34 -40 -38 -12 -3 -21 -15 -21
-26 0 -18 9 -19 165 -19 151 0 165 2 165 18 0 10 -16 24 -39 35 -23 10 -43 29
-50 45 -8 18 -10 117 -9 308 l3 281 189 -354 c129 -241 194 -353 205 -353 11
0 77 112 206 346 l190 346 3 -278 c3 -310 2 -312 -66 -344 -17 -8 -32 -23 -32
-32 0 -17 17 -18 220 -18 184 0 220 2 220 14 0 8 -19 25 -42 38 -69 37 -69 43
-66 503 3 447 2 441 74 471 19 8 34 21 34 29 0 13 -22 15 -152 13 l-152 -3
-188 -340 c-103 -187 -191 -341 -195 -342 -5 -2 -86 152 -181 342 l-172 345
-165 0 c-156 0 -165 -1 -165 -19z"/>
<path d="M7670 1356 c0 -8 15 -23 34 -34 56 -33 57 -50 54 -504 -3 -393 -4
-407 -24 -435 -11 -15 -30 -32 -42 -38 -12 -5 -22 -18 -22 -27 0 -17 24 -18
441 -16 l440 3 43 110 c37 93 41 111 29 119 -10 5 -24 -1 -46 -22 -68 -64 -81
-67 -323 -70 -199 -3 -222 -2 -235 14 -10 13 -15 57 -17 176 l-4 158 170 0
c94 0 182 -4 196 -10 15 -5 31 -21 38 -35 7 -15 18 -24 27 -23 13 3 16 25 19
141 2 129 1 137 -17 137 -10 0 -26 -11 -35 -25 -24 -36 -78 -46 -243 -43
l-148 3 0 131 c0 96 4 135 14 147 11 15 37 17 180 17 196 0 251 -12 312 -67
24 -22 44 -32 49 -27 5 5 -5 54 -26 122 l-36 112 -414 0 c-348 0 -414 -2 -414
-14z"/>
<path d="M8660 1356 c0 -8 17 -23 37 -33 21 -10 44 -29 50 -43 10 -19 12 -125
11 -453 l-3 -429 -33 -29 c-18 -16 -39 -29 -47 -29 -8 0 -15 -9 -15 -20 0 -19
7 -20 165 -20 151 0 165 2 165 18 0 9 -14 25 -30 34 -57 33 -61 55 -58 394 l3
306 359 -376 c221 -232 366 -376 377 -376 18 0 19 18 19 469 0 311 4 478 11
499 6 18 26 41 45 53 19 11 34 27 34 35 0 12 -30 14 -170 14 -144 0 -170 -2
-170 -15 0 -8 15 -21 34 -29 67 -28 71 -42 74 -310 3 -239 3 -240 -16 -222
-11 10 -134 143 -274 297 l-253 279 -157 0 c-130 0 -158 -3 -158 -14z"/>
<path d="M9798 1248 c-20 -68 -32 -127 -28 -132 5 -5 30 14 58 42 31 32 63 54
88 61 54 15 207 14 222 -1 15 -15 17 -783 2 -823 -5 -14 -26 -35 -45 -46 -19
-12 -35 -27 -35 -35 0 -12 38 -14 220 -14 213 0 220 1 220 20 0 14 -7 20 -21
20 -11 0 -34 13 -50 29 l-29 29 0 404 c0 301 3 407 12 416 8 8 46 12 107 12
115 0 160 -17 213 -79 25 -29 40 -40 52 -35 10 4 15 12 13 18 -2 6 -21 62 -43
124 l-39 112 -441 0 -440 0 -36 -122z"/>
</g>
</svg>
